HIERARCHY
ROOT Hips
{
	OFFSET 0.000000 88.474243 0.000000
	CHANNELS 6 Xposition Yposition Zposition Zrotation Yrotation Xrotation 
	JOINT Hips_Spine
	{
		OFFSET 0.000000 0.000000 0.000000
		CHANNELS 3 Zrotation Yrotation Xrotation
		JOINT Spine
		{
			OFFSET 0.005100 8.711998 -0.691000
			CHANNELS 3 Zrotation Yrotation Xrotation
			JOINT Spine1
			{
				OFFSET -0.009200 8.660301 -1.275000
				CHANNELS 3 Zrotation Yrotation Xrotation
				JOINT Spine2
				{
					OFFSET 0.006300 9.852501 -1.857000
					CHANNELS 3 Zrotation Yrotation Xrotation
					JOINT Spine2_Neck
					{
						OFFSET 0.000000 0.000000 0.000000
						CHANNELS 3 Zrotation Yrotation Xrotation
						JOINT Neck
						{
							OFFSET 0.016300 11.420799 -0.263300
							CHANNELS 3 Zrotation Yrotation Xrotation
							End Site #name: Head
							{
								OFFSET -0.019200 9.262405 2.362500
							}
						}
					}
					JOINT Spine2_LeftShoulder
					{
						OFFSET 0.000000 0.000000 0.000000
						CHANNELS 3 Zrotation Yrotation Xrotation
						JOINT LeftShoulder
						{
							OFFSET 5.616900 6.732201 -0.345700
							CHANNELS 3 Zrotation Yrotation Xrotation
							JOINT LeftArm
							{
								OFFSET 10.664888 -0.183372 -2.440700
								CHANNELS 3 Zrotation Yrotation Xrotation
								JOINT LeftForeArm
								{
									OFFSET 27.459126 0.000000 0.000000
									CHANNELS 3 Zrotation Yrotation Xrotation
									End Site #name: LeftHand
									{
										OFFSET 21.306858 0.000000 0.000000
									}
								}
							}
						}
					}
					JOINT Spine2_RightShoulder
					{
						OFFSET 0.000000 0.000000 0.000000
						CHANNELS 3 Zrotation Yrotation Xrotation
						JOINT RightShoulder
						{
							OFFSET -5.580300 6.737503 -0.344400
							CHANNELS 3 Zrotation Yrotation Xrotation
							JOINT RightArm
							{
								OFFSET -10.679335 -0.188484 -2.383900
								CHANNELS 3 Zrotation Yrotation Xrotation
								JOINT RightForeArm
								{
									OFFSET -27.503529 0.000000 0.000000
									CHANNELS 3 Zrotation Yrotation Xrotation
									End Site #name: RightHand
									{
										OFFSET -21.306808 0.000000 0.000000
									}
								}
							}
						}
					}
				}
			}
		}
	}
	JOINT Hips_LeftUpLeg
	{
		OFFSET 0.000000 0.000000 0.000000
		CHANNELS 3 Zrotation Yrotation Xrotation
		JOINT LeftUpLeg
		{
			OFFSET 6.857700 -6.739601 0.312100
			CHANNELS 3 Zrotation Yrotation Xrotation
			JOINT LeftLeg
			{
				OFFSET -0.367590 -34.731552 -4.572400
				CHANNELS 3 Zrotation Yrotation Xrotation
				End Site #name: LeftFoot
				{
					OFFSET 0.367590 -34.656704 -6.067400
				}
			}
		}
	}
	JOINT Hips_RightUpLeg
	{
		OFFSET 0.000000 0.000000 0.000000
		CHANNELS 3 Zrotation Yrotation Xrotation
		JOINT RightUpLeg
		{
			OFFSET -6.876100 -6.733299 0.301000
			CHANNELS 3 Zrotation Yrotation Xrotation
			JOINT RightLeg
			{
				OFFSET 0.347353 -34.795158 -4.515900
				CHANNELS 3 Zrotation Yrotation Xrotation
				End Site #name: RightFoot
				{
					OFFSET -0.347353 -34.589367 -6.070300
				}
			}
		}
	}
}
MOTION
Frames: 18
Frame Time: 0.041667
2.965655 0.741306 -4.391327 175.845592 -2.804975 -179.250218 0.000000 -0.000000 0.000000 -4.597014 -1.141984 4.860362 0.153218 -1.968448 1.093535 0.000000 0.000000 0.000000 0.716799 -1.898688 1.488461 1.897269 -26.536535 -3.985108 -0.096643 -1.632466 -0.584125 0.917550 -5.958692 0.880447 -85.005333 -23.330522 12.357004 2.843269 -16.652233 -0.471300 0.202474 -2.558327 0.085911 16.484917 16.615626 4.040669 55.375310 10.229504 10.555846 -2.785550 56.215567 1.263842 0.000000 0.000000 0.000000 -2.908914 15.949340 -4.767225 -0.083370 -34.906043 -13.957824 0.000000 0.000000 -0.000000 -6.762740 -50.756874 -7.644389 -11.355786 -7.330641 19.539079 
3.036442 0.794846 -4.502347 175.708214 -2.070921 -179.208313 0.000000 -0.000000 0.000000 -4.808432 -1.043037 5.057893 0.123451 -1.901097 1.104327 0.000000 0.000000 0.000000 0.683997 -1.861700 1.513091 1.714071 -25.793537 -4.308319 -0.117050 -1.579976 -0.539393 0.974193 -6.363256 1.020404 -84.933039 -23.444536 12.524066 2.787215 -17.500422 -0.587461 0.185951 -2.498030 0.071404 16.191174 16.616892 3.968491 55.352148 10.151881 10.764377 -2.876786 55.621239 1.191915 0.000000 0.000000 0.000000 -2.970683 15.514342 -5.376854 -0.302638 -34.707969 -13.298165 0.000000 0.000000 -0.000000 -6.512170 -50.218837 -7.679372 -10.882899 -6.434994 19.168901 
3.109856 0.848197 -4.609341 175.519749 -1.532940 -179.152384 0.000000 -0.000000 0.000000 -5.003021 -0.908960 5.235759 0.088342 -1.827442 1.096487 0.000000 0.000000 0.000000 0.648806 -1.820086 1.519572 1.486158 -24.935898 -4.745693 -0.139385 -1.517694 -0.500765 1.052961 -6.728210 1.138295 -84.814564 -23.535175 12.632642 2.734452 -18.607761 -0.724196 0.165866 -2.428571 0.055613 15.864695 16.661936 3.897043 55.342259 10.096584 10.978094 -2.936953 55.037415 1.150172 0.000000 0.000000 0.000000 -3.022423 15.098107 -5.951964 -0.533720 -34.495667 -12.619390 0.000000 0.000000 -0.000000 -6.321071 -49.926265 -7.649073 -10.505894 -5.497310 18.831659 
3.186807 0.900658 -4.713847 175.283480 -1.151669 -179.078790 0.000000 -0.000000 0.000000 -5.193556 -0.742610 5.397094 0.040597 -1.745318 1.064398 0.000000 0.000000 0.000000 0.604736 -1.769089 1.501357 1.189793 -23.959683 -5.335255 -0.165775 -1.450663 -0.475313 1.165707 -6.942808 1.148847 -84.633482 -23.602587 12.644880 2.714081 -20.031554 -0.865316 0.137222 -2.355441 0.016057 15.525135 16.759228 3.826135 55.337466 10.054891 11.173390 -2.971791 54.461258 1.134088 0.000000 0.000000 0.000000 -3.070869 14.694194 -6.559360 -0.800045 -34.237981 -11.843955 0.000000 0.000000 -0.000000 -6.166661 -49.937766 -7.557231 -10.158220 -4.371238 18.513968 
3.267881 0.951773 -4.816763 175.024811 -0.921595 -178.987722 -0.000000 -0.000000 0.000000 -5.404761 -0.579108 5.559141 -0.008533 -1.666632 1.015010 0.000000 0.000000 0.000000 0.553491 -1.711063 1.463379 0.731521 -22.918322 -6.026230 -0.197628 -1.371954 -0.459541 1.272089 -7.123969 1.148158 -84.435207 -23.647162 12.600166 2.726720 -21.701399 -1.014423 0.103226 -2.278578 -0.032177 15.184891 16.871968 3.864390 55.339778 9.998823 11.371483 -2.992238 53.968789 1.132670 0.000000 0.000000 -0.000000 -3.111627 14.292346 -7.185839 -1.089241 -33.973512 -11.024890 0.000000 0.000000 -0.000000 -6.041550 -50.315961 -7.412098 -9.885590 -3.031335 18.245143 
3.354265 1.000078 -4.918351 174.756178 -0.926198 -178.878189 -0.000000 -0.000000 0.000000 -5.664068 -0.434187 5.741233 -0.066551 -1.584269 0.958251 0.000000 0.000000 0.000000 0.504979 -1.651799 1.396212 0.272877 -21.910840 -6.689103 -0.231769 -1.295431 -0.452101 1.362199 -7.287874 1.171715 -84.232779 -23.680761 12.537414 2.782195 -23.570411 -1.162284 0.065323 -2.200209 -0.086444 14.867586 17.036679 3.924782 55.349978 9.959514 11.532001 -3.013867 53.625919 1.134958 0.000000 0.000000 -0.000000 -3.162789 13.881981 -7.814817 -1.404186 -33.765233 -10.156810 0.000000 0.000000 -0.000000 -6.020580 -51.158742 -7.104136 -9.545820 -1.678681 17.877878 
3.447917 1.044418 -5.018364 174.473170 -1.219513 -178.759683 -0.000000 -0.000000 0.000000 -6.001386 -0.340298 5.983823 -0.136676 -1.502026 0.897200 0.000000 0.000000 0.000000 0.452980 -1.594874 1.313352 0.115782 -20.783930 -7.464228 -0.269250 -1.223113 -0.457723 1.452611 -7.477616 1.198202 -83.971409 -23.759144 12.466915 2.897916 -25.546761 -1.296828 0.023523 -2.123507 -0.147338 14.566683 17.271229 3.990066 55.357745 9.951407 11.619963 -3.039485 53.496009 1.134286 0.000000 0.000000 -0.000000 -3.223011 13.490896 -8.383846 -1.728615 -33.699217 -9.276062 0.000000 -0.000000 -0.000000 -6.132782 -52.328699 -6.726435 -9.136085 -0.542427 17.522099 
3.549872 1.085959 -5.115289 174.201592 -1.969111 -178.640057 -0.000000 -0.000000 0.000000 -6.418968 -0.308864 6.299200 -0.226137 -1.431017 0.849555 0.000000 0.000000 0.000000 0.396434 -1.550764 1.226115 0.084553 -19.424331 -8.623634 -0.314735 -1.153111 -0.464319 1.524479 -7.674286 1.233459 -83.674849 -23.879145 12.386829 3.068898 -28.180701 -1.442898 -0.024687 -2.049269 -0.211327 14.272165 17.577593 4.050343 55.363706 9.991061 11.633237 -3.070488 53.598550 1.126936 0.000000 0.000000 -0.000000 -3.330833 13.130879 -8.897320 -2.075634 -33.778143 -8.378981 0.000000 -0.000000 -0.000000 -6.350513 -53.707612 -6.359123 -8.324761 0.666683 17.270406 
3.658506 1.127135 -5.210997 173.920228 -2.875495 -178.520126 -0.000000 -0.000000 0.000000 -6.858488 -0.325120 6.601059 -0.327191 -1.393410 0.830660 0.000000 0.000000 0.000000 0.333016 -1.528700 1.143742 0.184283 -17.839926 -9.908806 -0.368317 -1.093295 -0.463255 1.583372 -7.873537 1.270337 -83.335342 -24.019013 12.327752 3.326938 -31.913763 -1.618429 -0.075936 -1.989910 -0.262629 13.973792 17.977394 4.116296 55.369670 10.039843 11.577311 -3.109439 53.987303 1.109460 0.000000 0.000000 -0.000000 -3.516176 12.806359 -9.392561 -2.444107 -34.008766 -7.445198 0.000000 -0.000000 -0.000000 -6.663204 -55.336459 -5.930944 -7.305898 1.933031 17.099790 
3.772753 1.167993 -5.307743 173.706349 -3.881360 -178.375198 -0.000000 -0.000000 0.000000 -7.255009 -0.259861 6.829292 -0.426871 -1.383520 0.841921 0.000000 0.000000 0.000000 0.262924 -1.523700 1.079390 0.321723 -16.035408 -11.228933 -0.426393 -1.059708 -0.460416 1.654332 -8.088787 1.306662 -82.996323 -24.149903 12.320549 3.640176 -35.583699 -1.809874 -0.120537 -1.942677 -0.299658 13.689102 18.519581 4.192537 55.377494 10.054463 11.553105 -3.181065 54.708848 1.072023 0.000000 0.000000 -0.000000 -3.716405 12.578211 -9.890478 -2.844806 -34.314507 -6.445970 0.000000 -0.000000 -0.000000 -6.907317 -56.927498 -5.601824 -6.034047 3.335869 17.113842 
3.894513 1.209099 -5.405611 173.543743 -4.691097 -178.246959 -0.000000 -0.000000 0.000000 -7.662948 -0.231992 7.032829 -0.526048 -1.386190 0.857521 0.000000 0.000000 0.000000 0.190288 -1.540017 1.019665 0.444005 -14.262136 -12.499822 -0.482097 -1.062046 -0.454700 1.733205 -8.302305 1.342340 -82.657591 -24.272578 12.305625 4.007087 -39.053685 -2.020334 -0.172657 -1.916236 -0.347585 13.484813 19.151766 4.273905 55.374245 10.029465 11.488911 -3.277075 55.847323 1.008469 0.000000 0.000000 -0.000000 -3.914160 12.427574 -10.347606 -3.295518 -34.711939 -5.385008 0.000000 -0.000000 -0.000000 -7.123210 -58.381550 -5.325896 -5.094405 4.454980 17.214708 
4.026167 1.253227 -5.503499 173.394455 -5.203322 -178.142017 -0.000000 -0.000000 0.000000 -8.095131 -0.242005 7.231941 -0.629088 -1.408699 0.877298 0.000000 0.000000 0.000000 0.118501 -1.554372 0.973582 0.525623 -12.581758 -13.574267 -0.539881 -1.069287 -0.460015 1.821906 -8.499689 1.370617 -82.294961 -24.393440 12.303962 4.424622 -42.177649 -2.232705 -0.233686 -1.898095 -0.404125 13.354655 19.796124 4.311674 55.385472 9.924339 11.433428 -3.421872 57.651714 0.873777 0.000000 0.000000 -0.000000 -4.097225 12.356261 -10.687356 -3.773145 -35.150616 -4.358468 0.000000 -0.000000 -0.000000 -7.235680 -59.434746 -5.206606 -5.302826 4.748554 17.343658 
4.170872 1.302515 -5.602551 173.210177 -5.399008 -178.062860 -0.000000 -0.000000 0.000000 -8.533995 -0.289457 7.413624 -0.726960 -1.448110 0.891181 0.000000 0.000000 0.000000 0.031756 -1.576522 0.926578 0.609624 -10.662311 -14.639993 -0.597510 -1.082608 -0.474080 1.907180 -8.666446 1.389669 -81.917234 -24.498758 12.286572 4.878235 -44.985045 -2.454204 -0.296215 -1.891321 -0.469961 13.286375 20.392880 4.314944 55.385304 9.900692 11.211390 -3.636991 60.132270 0.652828 0.000000 0.000000 -0.000000 -4.259919 12.375597 -10.919573 -4.340354 -35.651701 -3.386094 0.000000 -0.000000 -0.000000 -7.306574 -60.084677 -5.179296 -5.515231 4.957602 17.442620 
4.330921 1.367230 -5.704578 173.019520 -5.296743 -178.020145 -0.000000 -0.000000 0.000000 -8.982035 -0.381231 7.595338 -0.824396 -1.502617 0.892092 0.000000 0.000000 0.000000 -0.058678 -1.605391 0.887838 0.625145 -8.272324 -15.805922 -0.655806 -1.101567 -0.488828 1.980100 -8.788791 1.398144 -81.534626 -24.584961 12.272830 5.324288 -47.360016 -2.664496 -0.364013 -1.897814 -0.526174 13.241222 20.906246 4.280323 55.481094 9.777958 11.047710 -4.008504 63.109698 0.269285 0.000000 0.000000 -0.000000 -4.367768 12.476561 -11.032982 -4.876557 -36.096322 -2.572040 0.000000 -0.000000 -0.000000 -7.179093 -60.168920 -5.437866 -5.678187 5.137452 17.526830 
4.508921 1.471396 -5.809865 172.808243 -4.859923 -178.036884 -0.000000 -0.000000 0.000000 -9.384628 -0.531654 7.770828 -0.921481 -1.573730 0.898407 0.000000 0.000000 0.000000 -0.158766 -1.641455 0.867212 0.524101 -6.202841 -16.678154 -0.715460 -1.128295 -0.498452 2.051096 -8.895889 1.398856 -81.146244 -24.670305 12.282068 5.741377 -49.345784 -2.864966 -0.443442 -1.924699 -0.583292 13.249849 21.381825 4.168567 55.636316 9.710196 10.789577 -4.564031 66.472745 -0.294538 0.000000 0.000000 -0.000000 -4.414018 12.661771 -10.973156 -5.352378 -36.593265 -1.993084 0.000000 0.000000 -0.000000 -6.274951 -59.505971 -6.444839 -5.766090 5.318507 17.610263 
4.703357 1.621979 -5.917653 172.580668 -4.208416 -178.132943 -0.000000 -0.000000 0.000000 -9.737488 -0.729272 7.932130 -1.020207 -1.661923 0.917565 0.000000 0.000000 0.000000 -0.261215 -1.692223 0.878138 0.273321 -4.676812 -17.226856 -0.775771 -1.167203 -0.494744 2.136879 -8.980480 1.390029 -80.753791 -24.757170 12.281328 6.091689 -50.924743 -3.064858 -0.532717 -1.985721 -0.620445 13.280448 21.823725 3.990654 55.847706 9.784384 10.618817 -5.304942 69.940306 -1.059217 0.000000 0.000000 -0.000000 -4.405546 12.920049 -10.713689 -5.707881 -37.021143 -1.680411 0.000000 0.000000 -0.000000 -4.900960 -58.276792 -7.940400 -5.797420 5.354988 17.921306 
4.912754 1.817072 -6.034252 172.356571 -3.657260 -178.311396 -0.000000 -0.000000 0.000000 -10.052762 -0.962111 8.193923 -1.118192 -1.791014 0.948897 0.000000 0.000000 0.000000 -0.379511 -1.749330 0.896579 0.004214 -3.526897 -17.433090 -0.833868 -1.215101 -0.480861 2.214991 -9.006284 1.374702 -80.317414 -24.881986 12.309294 6.402990 -52.239245 -3.252150 -0.628492 -2.075973 -0.642764 13.342630 22.216603 3.713457 56.099433 10.011800 10.371349 -6.202180 73.163294 -1.995101 0.000000 0.000000 -0.000000 -4.342855 13.225241 -10.234118 -5.922638 -37.361365 -1.648705 -0.000000 0.000000 -0.000000 -3.479486 -56.415129 -9.710541 -5.731770 5.219707 18.547832 
5.135732 2.043864 -6.159795 172.218904 -3.565166 -178.536947 -0.000000 -0.000000 0.000000 -10.238005 -1.163194 8.435917 -1.221867 -1.931063 0.981732 0.000000 0.000000 0.000000 -0.509235 -1.819437 0.925377 -0.129775 -2.868984 -17.409094 -0.891252 -1.266168 -0.463294 2.258640 -8.962879 1.361079 -79.815538 -25.017392 12.365393 6.688271 -53.446817 -3.463043 -0.732599 -2.183236 -0.643474 13.426670 22.594777 3.320854 56.396583 10.407669 10.066304 -7.188462 75.919909 -3.034725 0.000000 0.000000 -0.000000 -4.218496 13.570572 -9.535345 -6.001613 -37.668837 -1.889125 -0.000000 0.000000 -0.000000 -2.569857 -54.002432 -11.404726 -5.618489 4.975529 19.557840 
